<svg xmlns="http://www.w3.org/2000/svg" xmlns:xlink="http://www.w3.org/1999/xlink" version="1.1" x="0px" y="0px" viewBox="NaN NaN NaN 187.5"><g><path d="M85.381,114.107 C86.28,114.107 87.008,114.836 87.008,115.734 L87.008,146.289 C87.008,147.188 86.28,147.916 85.382,147.916 L54.826,147.915 C53.928,147.916 53.2,147.188 53.2,146.289 L53.2,115.734 C53.2,114.836 53.928,114.107 54.826,114.107 L85.381,114.107 z" fill="#000000"/><path d="M47.089,92.585 C47.988,92.585 48.716,93.313 48.716,94.212 C48.716,95.11 47.988,95.838 47.089,95.838 L26.359,95.838 L26.359,130.692 L40.308,130.692 L40.308,127.222 C40.339,126.245 40.953,125.936 41.753,125.604 C42.836,125.796 42.418,125.583 43.081,126.069 L48.236,131.198 L48.508,131.606 C48.74,131.838 48.58,131.649 48.716,132.319 L48.596,132.912 C48.596,133.181 48.606,132.95 48.237,133.504 C47.591,134.147 46.945,134.79 46.299,135.433 C45.226,136.501 44.154,137.568 43.082,138.635 C42.056,139.656 40.308,138.93 40.308,137.483 L40.308,133.945 L24.733,133.945 C23.835,133.946 23.106,133.217 23.106,132.319 L23.106,94.211 C23.106,93.313 23.835,92.585 24.733,92.585 L47.089,92.585 z" fill="#000000"/><path d="M96.829,43.787 C97.744,44.002 98.14,44.522 98.274,45.405 L98.274,48.93 L125.268,48.93 C126.166,48.93 126.894,49.658 126.894,50.557 L126.894,132.319 C126.894,133.217 126.166,133.945 125.268,133.945 L91.493,133.945 C90.594,133.945 89.866,133.217 89.866,132.319 C89.866,131.421 90.594,130.693 91.493,130.693 L123.641,130.693 L123.641,52.183 L98.274,52.183 L98.274,55.666 C98.274,57.114 96.526,57.84 95.5,56.819 C94.856,56.178 94.856,56.178 92.923,54.253 C90.99,52.329 90.99,52.329 90.345,51.688 L90.052,51.248 C89.842,51.037 89.999,51.216 89.866,50.557 L89.986,49.963 C89.986,49.705 89.978,49.933 90.345,49.382 L95.5,44.252 C96.164,43.767 95.746,43.98 96.829,43.787 z" fill="#000000"/><path d="M85.381,77.052 C86.28,77.052 87.008,77.78 87.008,78.678 L87.008,109.233 C87.008,110.132 86.28,110.86 85.382,110.86 L54.826,110.86 C53.928,110.86 53.2,110.132 53.2,109.234 L53.2,78.678 C53.2,77.78 53.928,77.052 54.826,77.052 L85.381,77.052 z" fill="#000000"/><path d="M113.849,61.475 C114.748,61.475 115.476,62.203 115.476,63.101 L115.476,93.903 C115.476,94.802 114.748,95.53 113.849,95.53 L98.274,95.53 L98.274,99.086 C98.274,100.534 96.526,101.26 95.5,100.239 C94.856,99.598 94.856,99.598 92.923,97.674 C90.99,95.749 90.99,95.749 90.345,95.108 C89.973,94.549 89.986,94.785 89.986,94.497 L89.866,93.903 C90.005,93.216 89.842,93.423 90.111,93.153 L90.345,92.802 L95.5,87.673 C96.164,87.187 95.746,87.4 96.829,87.207 C97.744,87.422 98.14,87.942 98.274,88.826 L98.274,92.277 L112.223,92.277 L112.223,64.728 L91.493,64.728 C90.594,64.728 89.866,64 89.866,63.101 C89.866,62.203 90.594,61.475 91.493,61.475 L113.849,61.475 z" fill="#000000"/><path d="M85.381,39.595 C86.28,39.595 87.008,40.323 87.008,41.222 L87.008,71.777 C87.008,72.675 86.28,73.403 85.382,73.403 L54.826,73.403 C53.928,73.403 53.2,72.675 53.2,71.777 L53.2,41.221 C53.2,40.323 53.928,39.595 54.826,39.595 L85.381,39.595 z" fill="#000000"/><path d="M47.089,16.606 C47.988,16.606 48.716,17.334 48.716,18.232 C48.716,19.131 47.988,19.859 47.089,19.859 L26.359,19.859 L26.359,54.713 L40.308,54.713 L40.308,51.242 C40.339,50.265 40.953,49.957 41.753,49.624 C42.836,49.816 42.418,49.604 43.081,50.089 L48.236,55.219 L48.509,55.627 C48.74,55.859 48.581,55.67 48.716,56.34 L48.596,56.932 C48.596,57.201 48.606,56.971 48.237,57.524 C47.591,58.167 46.945,58.811 46.299,59.454 C45.226,60.521 44.154,61.589 43.082,62.656 C42.056,63.677 40.308,62.95 40.308,61.503 L40.308,57.966 L24.732,57.966 C23.835,57.966 23.106,57.238 23.106,56.34 L23.106,18.232 C23.106,17.334 23.835,16.606 24.733,16.606 L47.089,16.606 z" fill="#000000"/><path d="M85.381,2.084 C86.28,2.085 87.008,2.813 87.008,3.711 L87.008,34.266 C87.008,35.165 86.28,35.893 85.382,35.893 L54.826,35.893 C53.928,35.893 53.2,35.165 53.2,34.266 L53.2,3.711 C53.2,2.813 53.928,2.085 54.826,2.085 L85.381,2.084 z" fill="#000000"/></g></svg>