<svg xmlns="http://www.w3.org/2000/svg" version="1.1" viewBox="0 0 64 80" x="0px" y="0px"><title>cloud-down</title><path d="M25.333 9.333c-9.573 0-17.333 7.733-17.333 17.333 0 0-0.001-0.001 0 0.266-4.757 2.4-8 7.201-8 13.068 0 8 6.566 14.667 14.667 14.667h36c7.363 0 13.333-6.133 13.333-13.333 0-5.6-3.459-10.398-8.333-12.531 0.189-0.533 0.333-1.335 0.333-2.135 0-5.333-4.179-9.333-9.333-9.333-2.128 0-4.096 0.531-5.667 1.865-2.781-5.867-8.752-9.865-15.667-9.865zM26.667 22.667h10.667v13.333h5.333l-10.667 13.333-10.667-13.333h5.333z"/></svg>